<?xml version="1.0" encoding="UTF-8"?>
<svg id="_레이어_2" data-name="레이어 2" xmlns="http://www.w3.org/2000/svg" viewBox="0 0 204.74 57.37">
  <defs>
    <style>
      .cls-1 {
        fill: #002f71;
      }

      .cls-1, .cls-2, .cls-3 {
        stroke-width: 0px;
      }

      .cls-2 {
        fill: #fff;
      }

      .cls-4 {
        opacity: .1;
      }

      .cls-3 {
        fill: #de041c;
      }
    </style>
  </defs>
  <g id="_레이어_1-2" data-name="레이어 1">
    <g id="_그룹_6440" data-name="그룹 6440">
      <g id="_그룹_6439" data-name="그룹 6439">
        <g id="_그룹_6438" data-name="그룹 6438">
          <path id="_패스_13356" data-name="패스 13356" class="cls-3" d="m122.05,30.83c0,1.61-1.3,2.91-2.91,2.92-1.61,0-2.91-1.3-2.92-2.91,0-1.61,1.3-2.91,2.91-2.92,1.61,0,2.91,1.3,2.92,2.91"/>
          <path id="_패스_13357" data-name="패스 13357" class="cls-3" d="m109.27,57.3c-3.03-.02-5.48-2.49-5.46-5.53,0-.02,0-.05,0-.07v-22.91h4.9v22.15c0,1.73,1.63,3.17,4.45,1.48v3.74c-1.17.72-2.51,1.12-3.89,1.14"/>
          <path id="_패스_13358" data-name="패스 13358" class="cls-3" d="m121.57,39v11.93c0,1.73,1.63,3.17,4.45,1.48v3.74c-5.35,3.05-9.35-.58-9.35-4.46v-12.7h4.9Z"/>
          <path id="_패스_13359" data-name="패스 13359" class="cls-3" d="m134.66,50.94v-7.73h5.1v-4.2h-5.1v-10.22h-4.9v22.92c0,3.88,4,7.51,10,4.33v-3.75c-3.47,1.82-5.1.38-5.1-1.35"/>
          <path id="_패스_13360" data-name="패스 13360" class="cls-3" d="m86.73,49.97c-.42-.73-.65-1.55-.64-2.39.05-2.76,2.34-4.96,5.1-4.9.75.01,1.48.2,2.15.53l-6.6,6.76Zm5.55,3.26c-.92.01-1.82-.19-2.65-.59l9.6-9.82c-2.9-4.39-8.82-5.6-13.21-2.7-2.59,1.71-4.18,4.57-4.27,7.66,0,5.17,4.11,9.4,9.28,9.55,2.8.22,5.58-.55,7.87-2.17v-5.08c-1.61,2.01-4.04,3.16-6.61,3.15"/>
          <path id="_패스_13361" data-name="패스 13361" class="cls-3" d="m148.39,49.97c-.42-.73-.64-1.55-.63-2.39.03-2.73,2.27-4.93,5-4.9.78,0,1.55.18,2.24.53l-6.61,6.76Zm5.56,3.26c-.92.01-1.83-.19-2.66-.59l9.61-9.82c-2.9-4.39-8.82-5.6-13.21-2.7-2.58,1.71-4.18,4.56-4.27,7.66,0,5.17,4.11,9.4,9.28,9.55,2.79.22,5.57-.55,7.86-2.17v-5.08c-1.6,2-4.03,3.16-6.6,3.15"/>
          <path id="_패스_13362" data-name="패스 13362" class="cls-3" d="m183.45,33.38c-1.73-.08-3.41-.65-4.83-1.65-.1.86-.39,1.68-.85,2.42-.65.92-1.23,1.89-1.73,2.9-.77,1.64-.54,3.57.6,4.98,2.25,2.92,7.42,2.98,9.84,1.07,2.43-1.93,2.85-4.15,1.41-8.13-.24-.68-.39-1.4-.43-2.12-1.29.45-2.65.64-4.01.53"/>
          <path id="_패스_13363" data-name="패스 13363" class="cls-3" d="m177.71,11.83l-14.12,3.55c1.72,3.04,3.78,5.87,6.14,8.44l9.2-3.21c-.18-2.95-.59-5.89-1.21-8.78"/>
          <path id="_패스_13364" data-name="패스 13364" class="cls-3" d="m187.46,32.86c3.28-1.44,6.36-3.31,9.16-5.55l-7.44-4.96c-1.19,3.37-1.78,6.93-1.73,10.51"/>
          <path id="_패스_13365" data-name="패스 13365" class="cls-3" d="m172.44,26.65c.83.8,1.66,1.56,2.45,2.23,1.18,1.02,2.43,1.97,3.73,2.84.34-2.46.49-4.95.46-7.43l-6.63,2.36Z"/>
          <path id="_패스_13366" data-name="패스 13366" class="cls-3" d="m169.24.02c-1.19-.08-2.38.11-3.48.56-1.17.47-2.21,1.2-3.05,2.14-1.43,1.81-1.96,4.17-1.46,6.42l14.04-4.61c-1.41-2.55-3.38-4.27-6.06-4.5"/>
          <path id="_패스_13367" data-name="패스 13367" class="cls-3" d="m192.42,15.41c-.73,1.14-1.37,2.33-1.91,3.56,0,0-.13.27-.33.73l9.61,4.94c.55-.5.85-.81.85-.81.26-.25.51-.51.76-.78l-8.98-7.64Z"/>
          <path id="_패스_13368" data-name="패스 13368" class="cls-3" d="m204.27,13.91c-.41-.86-1.03-1.6-1.8-2.15-2.02-1.38-4.69-1.34-6.67.08l8.79,5.56c.28-1.16.17-2.39-.31-3.49"/>
          <path id="_패스_13369" data-name="패스 13369" class="cls-1" d="m177.71,11.82h0c-.41-2.54-1.23-5.01-2.41-7.3l-14.05,4.61c.42,2.2,1.21,4.31,2.33,6.25l14.12-3.55h0Z"/>
          <path id="_패스_13370" data-name="패스 13370" class="cls-1" d="m178.93,20.61l-9.2,3.21c.9,1,1.82,1.95,2.71,2.83l6.64-2.36c0-1.28-.07-2.52-.15-3.68"/>
          <path id="_패스_13371" data-name="패스 13371" class="cls-1" d="m204.58,17.39l-8.79-5.56c-1.36.95-2.5,2.17-3.38,3.58l8.98,7.64c1.53-1.58,2.63-3.53,3.19-5.66"/>
          <path id="_패스_13372" data-name="패스 13372" class="cls-1" d="m189.18,22.35l7.44,4.96c1.37-1.07,2.46-2.03,3.16-2.66l-9.61-4.93c-.24.59-.61,1.5-.99,2.64"/>
          <path id="_패스_13373" data-name="패스 13373" class="cls-3" d="m77.09,48c0-3.3,1.25-6.47,3.5-8.89H8.13c-4.48.01-8.11,3.64-8.13,8.13v1.84c.01,4.48,3.64,8.11,8.13,8.13h72.57c-2.32-2.5-3.61-5.79-3.61-9.21"/>
          <path id="_패스_13374" data-name="패스 13374" class="cls-2" d="m14.46,52.84h-3.99v-9.9h5.06v.85h-4.1v8.21h3.07c.81.03,1.62-.09,2.39-.36v.81c-.77.3-1.6.43-2.43.39m.33-4.79v-.84h3.31v-4.46h.98v10.86h-.98v-5.56h-3.31Z"/>
          <path id="_패스_13375" data-name="패스 13375" class="cls-2" d="m25.25,47.64v-3.49h-.93v-1.4h6.33v1.4h-.96v1.89c.01.54-.04,1.08-.17,1.6h.01c.54.02,1.08-.02,1.61-.13v1.31c-.55.16-1.13.23-1.7.22h-5.26v-1.4h1.07Zm-.16,6.16v-3.94h1.66v2.5h6.93v1.44h-8.59Zm2.97-9.66h-1.19v3.49h1.08c.08-.5.12-1,.11-1.5v-1.99Zm2.2.19h1.56v-1.72h1.66v7.81h-1.66v-3.12h-1.57v-1.28h1.57v-.4h-1.57v-1.29Z"/>
          <path id="_패스_13376" data-name="패스 13376" class="cls-2" d="m37.49,42.29h1.66v1.11h2.29v1.37h-6.34v-1.37h2.39v-1.11Zm-2.06,5.3c-.01-.61.24-1.2.69-1.61.61-.51,1.38-.76,2.17-.73.79-.03,1.57.22,2.18.73.89.84.93,2.24.09,3.13-.03.03-.06.06-.09.09-.61.51-1.39.77-2.18.73-.79.04-1.57-.22-2.17-.73-.45-.41-.71-.99-.69-1.6m2.3,4.77h6.82v1.44h-8.47v-3.42h1.66v1.98Zm-.7-4.77c0,.24.09.47.25.63.59.49,1.44.49,2.03,0,.17-.17.26-.4.25-.63,0-.24-.08-.47-.25-.64-.59-.48-1.44-.48-2.03,0-.17.17-.26.4-.25.64m7.33-1.94h1.54v1.45h-1.54v3.65h-1.66v-8.14h1.66v3.03Z"/>
          <path id="_패스_13377" data-name="패스 13377" class="cls-2" d="m54.7,47.13h.97v5.14h3.64v.85h-9.66v-.85h2.11v-5.14h.98v5.14h1.95v-5.14Zm3.04-.3v-3.03h-7.57v-.85h8.54v3.7c.01,1.19-.09,2.38-.29,3.56h-.96c.19-1.11.28-2.24.28-3.37"/>
          <path id="_패스_13378" data-name="패스 13378" class="cls-2" d="m62.47,44.15h6.36v-1.28h.97v4.33h-3.68v1.36h4.42v.85h-9.77v-.85h4.38v-1.36h-3.64v-4.33h.97v1.28Zm6.36,9.63v-2.18h-7.41v-.83h8.38v3.01h-.97Zm0-8.79h-6.36v1.37h6.36v-1.37Z"/>
          <g id="_그룹_6437" data-name="그룹 6437" class="cls-4">
            <g id="_그룹_6436" data-name="그룹 6436">
              <g id="_그룹_6435" data-name="그룹 6435">
                <path id="_패스_13379" data-name="패스 13379" class="cls-3" d="m122.05,30.83c0,1.61-1.3,2.91-2.91,2.92-1.61,0-2.91-1.3-2.92-2.91,0-1.61,1.3-2.91,2.91-2.92,1.61,0,2.91,1.3,2.92,2.91"/>
                <path id="_패스_13380" data-name="패스 13380" class="cls-3" d="m109.27,57.3c-3.03-.02-5.48-2.49-5.46-5.53,0-.02,0-.05,0-.07v-22.91h4.9v22.15c0,1.73,1.63,3.17,4.45,1.48v3.74c-1.17.72-2.51,1.12-3.89,1.14"/>
                <path id="_패스_13381" data-name="패스 13381" class="cls-3" d="m121.57,39v11.93c0,1.73,1.63,3.17,4.45,1.48v3.74c-5.35,3.05-9.35-.58-9.35-4.46v-12.7h4.9Z"/>
                <path id="_패스_13382" data-name="패스 13382" class="cls-3" d="m134.66,50.94v-7.73h5.1v-4.2h-5.1v-10.22h-4.9v22.92c0,3.88,4,7.51,10,4.33v-3.75c-3.47,1.82-5.1.38-5.1-1.35"/>
                <path id="_패스_13383" data-name="패스 13383" class="cls-3" d="m86.73,49.97c-.42-.73-.65-1.55-.64-2.39.05-2.76,2.34-4.96,5.1-4.9.75.01,1.48.2,2.15.53l-6.6,6.76Zm5.55,3.26c-.92.01-1.82-.19-2.65-.59l9.6-9.82c-2.9-4.39-8.82-5.6-13.21-2.7-2.59,1.71-4.18,4.57-4.27,7.66,0,5.17,4.11,9.4,9.28,9.55,2.8.22,5.58-.55,7.87-2.17v-5.08c-1.61,2.01-4.04,3.16-6.61,3.15"/>
                <path id="_패스_13384" data-name="패스 13384" class="cls-3" d="m148.39,49.97c-.42-.73-.64-1.55-.63-2.39.03-2.73,2.27-4.93,5-4.9.78,0,1.55.18,2.24.53l-6.61,6.76Zm5.56,3.26c-.92.01-1.83-.19-2.66-.59l9.61-9.82c-2.9-4.39-8.82-5.6-13.21-2.7-2.58,1.71-4.18,4.56-4.27,7.66,0,5.17,4.11,9.4,9.28,9.55,2.79.22,5.57-.55,7.86-2.17v-5.08c-1.6,2-4.03,3.16-6.6,3.15"/>
                <path id="_패스_13385" data-name="패스 13385" class="cls-3" d="m183.45,33.38c-1.73-.08-3.41-.65-4.83-1.65-.1.86-.39,1.68-.85,2.42-.65.92-1.23,1.89-1.73,2.9-.77,1.64-.54,3.57.6,4.98,2.25,2.92,7.42,2.98,9.84,1.07,2.43-1.93,2.85-4.15,1.41-8.13-.24-.68-.39-1.4-.43-2.12-1.29.45-2.65.64-4.01.53"/>
                <path id="_패스_13386" data-name="패스 13386" class="cls-3" d="m177.71,11.83l-14.12,3.55c1.72,3.04,3.78,5.87,6.14,8.44l9.2-3.21c-.18-2.95-.59-5.89-1.21-8.78"/>
                <path id="_패스_13387" data-name="패스 13387" class="cls-3" d="m187.46,32.86c3.28-1.44,6.36-3.31,9.16-5.55l-7.44-4.96c-1.19,3.37-1.78,6.93-1.73,10.51"/>
                <path id="_패스_13388" data-name="패스 13388" class="cls-3" d="m172.44,26.65c.83.8,1.66,1.56,2.45,2.23,1.18,1.02,2.43,1.97,3.73,2.84.34-2.46.49-4.95.46-7.43l-6.63,2.36Z"/>
                <path id="_패스_13389" data-name="패스 13389" class="cls-3" d="m169.24.02c-1.19-.08-2.38.11-3.48.56-1.17.47-2.21,1.2-3.05,2.14-1.43,1.81-1.96,4.17-1.46,6.42l14.04-4.61c-1.41-2.55-3.38-4.27-6.06-4.5"/>
                <path id="_패스_13390" data-name="패스 13390" class="cls-3" d="m192.42,15.41c-.73,1.14-1.37,2.33-1.91,3.56,0,0-.13.27-.33.73l9.61,4.94c.55-.5.85-.81.85-.81.26-.25.51-.51.76-.78l-8.98-7.64Z"/>
                <path id="_패스_13391" data-name="패스 13391" class="cls-3" d="m204.27,13.91c-.41-.86-1.03-1.6-1.8-2.15-2.02-1.38-4.69-1.34-6.67.08l8.79,5.56c.28-1.16.17-2.39-.31-3.49"/>
                <path id="_패스_13392" data-name="패스 13392" class="cls-1" d="m177.71,11.82h0c-.41-2.54-1.23-5.01-2.41-7.3l-14.05,4.61c.42,2.2,1.21,4.31,2.33,6.25l14.12-3.55h0Z"/>
                <path id="_패스_13393" data-name="패스 13393" class="cls-1" d="m178.93,20.61l-9.2,3.21c.9,1,1.82,1.95,2.71,2.83l6.64-2.36c0-1.28-.07-2.52-.15-3.68"/>
                <path id="_패스_13394" data-name="패스 13394" class="cls-1" d="m204.58,17.39l-8.79-5.56c-1.36.95-2.5,2.17-3.38,3.58l8.98,7.64c1.53-1.58,2.63-3.53,3.19-5.66"/>
                <path id="_패스_13395" data-name="패스 13395" class="cls-1" d="m189.18,22.35l7.44,4.96c1.37-1.07,2.46-2.03,3.16-2.66l-9.61-4.93c-.24.59-.61,1.5-.99,2.64"/>
                <path id="_패스_13396" data-name="패스 13396" class="cls-3" d="m77.09,48c0-3.3,1.25-6.47,3.5-8.89H8.13c-4.48.01-8.11,3.64-8.13,8.13v1.84c.01,4.48,3.64,8.11,8.13,8.13h72.57c-2.32-2.5-3.61-5.79-3.61-9.21"/>
                <path id="_패스_13397" data-name="패스 13397" class="cls-2" d="m14.46,52.84h-3.99v-9.9h5.06v.85h-4.1v8.21h3.07c.81.03,1.62-.09,2.39-.36v.81c-.77.3-1.6.43-2.43.39m.33-4.79v-.84h3.31v-4.46h.98v10.86h-.98v-5.56h-3.31Z"/>
                <path id="_패스_13398" data-name="패스 13398" class="cls-2" d="m25.25,47.64v-3.49h-.93v-1.4h6.33v1.4h-.96v1.89c.01.54-.04,1.08-.17,1.6h.01c.54.02,1.08-.02,1.61-.13v1.31c-.55.16-1.13.23-1.7.22h-5.26v-1.4h1.07Zm-.16,6.16v-3.94h1.66v2.5h6.93v1.44h-8.59Zm2.97-9.66h-1.19v3.49h1.08c.08-.5.12-1,.11-1.5v-1.99Zm2.2.19h1.56v-1.72h1.66v7.81h-1.66v-3.12h-1.57v-1.28h1.57v-.4h-1.57v-1.29Z"/>
                <path id="_패스_13399" data-name="패스 13399" class="cls-2" d="m37.49,42.29h1.66v1.11h2.29v1.37h-6.34v-1.37h2.39v-1.11Zm-2.06,5.3c-.01-.61.24-1.2.69-1.61.61-.51,1.38-.76,2.17-.73.79-.03,1.57.22,2.18.73.89.84.93,2.24.09,3.13-.03.03-.06.06-.09.09-.61.51-1.39.77-2.18.73-.79.04-1.57-.22-2.17-.73-.45-.41-.71-.99-.69-1.6m2.3,4.77h6.82v1.44h-8.47v-3.42h1.66v1.98Zm-.7-4.77c0,.24.09.47.25.63.59.49,1.44.49,2.03,0,.17-.17.26-.4.25-.63,0-.24-.08-.47-.25-.64-.59-.48-1.44-.48-2.03,0-.17.17-.26.4-.25.64m7.33-1.94h1.54v1.45h-1.54v3.65h-1.66v-8.14h1.66v3.03Z"/>
                <path id="_패스_13400" data-name="패스 13400" class="cls-2" d="m54.7,47.13h.97v5.14h3.64v.85h-9.66v-.85h2.11v-5.14h.98v5.14h1.95v-5.14Zm3.04-.3v-3.03h-7.57v-.85h8.54v3.7c.01,1.19-.09,2.38-.29,3.56h-.96c.19-1.11.28-2.24.28-3.37"/>
                <path id="_패스_13401" data-name="패스 13401" class="cls-2" d="m62.47,44.15h6.36v-1.28h.97v4.33h-3.68v1.36h4.42v.85h-9.77v-.85h4.38v-1.36h-3.64v-4.33h.97v1.28Zm6.36,9.63v-2.18h-7.41v-.83h8.38v3.01h-.97Zm0-8.79h-6.36v1.37h6.36v-1.37Z"/>
              </g>
            </g>
          </g>
        </g>
      </g>
    </g>
  </g>
</svg>